<svg xmlns="http://www.w3.org/2000/svg" width="158.584" height="29.163" viewBox="0 0 158.584 29.163">
    <g transform="translate(-0.01 0.003)">
        <path
                d="M671.1,147.04l-3.776,3.776c-.051.032-.1.063-.14.089a.794.794,0,0,1-.109.07l-.032.013a.413.413,0,0,1-.211-.013l-.1-.052h-.045c-.019-.019-.051-.045-.064-.057L662.8,147.04a.487.487,0,0,1,0-.709.477.477,0,0,1,.708,0l2.934,2.929V132.866a.51.51,0,0,1,1.021,0V149.2l2.915-2.915a.535.535,0,0,1,.721.05A.477.477,0,0,1,671.1,147.04Z"
                transform="translate(-662.65 -132.356)"
                fill="#434359"
        />
    </g>
</svg>
