<svg xmlns="http://www.w3.org/2000/svg" width="120.51" height="40.794" viewBox="0 0 120.51 40.794">
  <g id="Layer_2" data-name="Layer 2" transform="translate(0 -0.006)">
    <g id="Layer_1" data-name="Layer 1">
      <path id="Path_1481" data-name="Path 1481" d="M60.25,40.3C26.94,40.3,3,38.62.6,37c2.36-1.6,26.34-3.28,59.65-3.28S117.54,35.41,119.9,37C117.54,38.62,93.57,40.3,60.25,40.3Z" fill="#fff"/>
      <path id="Path_1482" data-name="Path 1482" d="M60.25,34.23c32,0,52.63,1.49,58.1,2.78-5.47,1.3-26.1,2.79-58.1,2.79S7.62,38.31,2.16,37c5.46-1.29,26.09-2.78,58.09-2.78m0-1C27,33.23,0,34.92,0,37s27,3.8,60.25,3.8,60.26-1.7,60.26-3.79-27-3.78-60.26-3.78Z" fill="#fff"/>
      <path id="Path_1483" data-name="Path 1483" d="M23.54,37s-.65-32.48,22.7-26.64S74.1,38,74.1,38C60.79,38.47,37.05,39.06,23.54,37Z" fill="#fff" stroke="#181a1f" stroke-miterlimit="10" stroke-width="2"/>
      <path id="Path_1484" data-name="Path 1484" d="M78.65,37.84S71.38,12.06,80,20.26,89.11,37,89.11,37h2.54c-1.7-8.48-.44-13,.24-13.14C93,23.74,98.42,37,98.42,37,93,37.74,85.46,37.81,78.65,37.84Z" fill="#fff" stroke="#181a1f" stroke-miterlimit="10" stroke-width="2"/>
      <path id="Path_1485" data-name="Path 1485" d="M36.2,1.46c4.29,1.34,8.52,6.62,3.55,6.35-5.86-.33-10.86,6.92-9.62-3C30.59,1.12,32.73.37,36.2,1.46Z" fill="#fff" stroke="#181a1f" stroke-miterlimit="10" stroke-width="2"/>
    </g>
  </g>
</svg>
