<?xml version="1.0" encoding="UTF-8" standalone="no"?>
<!DOCTYPE svg PUBLIC "-//W3C//DTD SVG 1.1//EN" "http://www.w3.org/Graphics/SVG/1.1/DTD/svg11.dtd">
<svg width="100%" height="100%" viewBox="0 0 121 50" version="1.1" xmlns="http://www.w3.org/2000/svg" xmlns:xlink="http://www.w3.org/1999/xlink" xml:space="preserve" xmlns:serif="http://www.serif.com/" style="fill-rule:evenodd;clip-rule:evenodd;stroke-linejoin:round;stroke-miterlimit:2;">
    <g transform="matrix(1,0,0,1,-2.06778,2.05017)">
        <g transform="matrix(0.48072,0,0,0.48072,-3.605,-6.351)">
            <path d="M47.627,93.044C47.555,93.062 47.481,93.062 47.409,93.044C47.223,92.99 47.082,92.835 47.048,92.644C46.848,91.373 52.358,79.685 54.893,75.144C56.164,72.888 65.679,66.66 72.093,63.606C72.665,63.335 76.373,61.553 76.486,61.756C76.599,61.959 73.139,64.656 72.958,64.81C67.317,69.338 57.231,81.184 51.966,87.923C48.613,92.217 48,92.969 47.627,93.044Z" style="fill:white;fill-rule:nonzero;"/>
        </g>
        <g transform="matrix(0.48072,0,0,0.48072,-0.693,-0.295)">
            <path d="M99.311,17.943C108.179,17.665 112.85,20.199 115.174,22.456C117.052,24.133 118.185,26.493 118.318,29.007C118.378,32.369 114.745,33.377 112.572,33.986C112.279,34.061 111.925,34.159 111.632,34.257C113.132,34.857 116.574,35.934 119.672,36.897C132.556,40.913 138.009,42.914 138.472,44.652C138.571,45.053 138.444,45.477 138.141,45.758C137.449,46.337 136.141,46.239 133.959,45.871L133.643,45.818C111.259,42.253 95.953,42.509 95.795,42.509C54.728,43.133 33.735,72.909 26.831,82.696C25.018,85.276 24.296,86.296 23.631,86.314C23.439,86.311 23.252,86.247 23.097,86.133C22.758,85.847 22.573,85.418 22.597,84.975C22.447,80.334 32.197,52.888 52.954,37.296C61.591,30.8 76.272,24.223 97.4,29.4C96.192,28.102 95.514,26.397 95.5,24.624C89.295,25.436 78.2,24.549 70.3,23.518C63.508,22.608 52.03,20.758 51.293,18.14C51.135,17.568 51.368,16.952 52.835,16.094C59.435,12.213 68.908,11.371 68.908,11.371C95.618,8.789 99.311,17.943 99.311,17.943Z" style="fill:white;fill-rule:nonzero;"/>
        </g>
        <g transform="matrix(0.48072,0,0,0.48072,-7.125,1.006)">
            <path d="M83.493,6.473C83.493,6.473 75.422,1.719 76.723,0.456C78.024,-0.807 92.804,0.456 102.523,4.63C112.242,8.804 112.857,13.46 112.857,13.46C109.69,8.271 101.348,5.066 83.493,6.473Z" style="fill:white;fill-rule:nonzero;"/>
        </g>
        <g transform="matrix(0.48072,0,0,0.48072,-15.838,-3.953)">
            <path d="M170.583,47.169C169.139,47.214 167.868,47.237 165.95,47.269C165.479,47.263 165.012,47.172 164.573,47L152.223,43.074C151.862,42.961 149.515,42.202 149.723,41.893C149.931,41.584 152.092,41.6 152.468,41.615L153.303,41.615C168.459,42.059 177.372,43.115 179.903,44.751C180.242,44.94 180.405,45.342 180.294,45.714C180.157,46.266 180.015,46.89 170.583,47.169Z" style="fill:white;fill-rule:nonzero;"/>
        </g>
        <g transform="matrix(0.48072,0,0,0.48072,-3.13,-4.11)">
            <path d="M47.525,52.009C47.125,52.086 46.711,52.041 46.337,51.881C45.713,51.625 45.419,51.129 44.837,50.381C43.337,48.546 42.731,46.47 43.22,44.981C43.54,44.062 44.321,43.376 45.273,43.176C48.229,42.424 51.561,43.576 52.794,44.981C53.794,46.081 53.336,46.44 52.042,47.516C51.286,48.148 50.57,48.826 49.898,49.547C48.8,50.663 48.4,51.581 47.525,52.009Z" style="fill:white;fill-rule:nonzero;"/>
        </g>
    </g>
    <g transform="matrix(0.52479,0.306929,-0.306929,0.52479,37.0641,15.2283)">
        <g transform="matrix(0.48072,0,0,0.48072,-3.605,-6.351)">
            <path d="M47.627,93.044C47.555,93.062 47.481,93.062 47.409,93.044C47.223,92.99 47.082,92.835 47.048,92.644C46.848,91.373 52.358,79.685 54.893,75.144C56.164,72.888 65.679,66.66 72.093,63.606C72.665,63.335 76.373,61.553 76.486,61.756C76.599,61.959 73.139,64.656 72.958,64.81C67.317,69.338 57.231,81.184 51.966,87.923C48.613,92.217 48,92.969 47.627,93.044Z" style="fill:white;fill-rule:nonzero;"/>
        </g>
        <g transform="matrix(0.48072,0,0,0.48072,-0.693,-0.295)">
            <path d="M99.311,17.943C108.179,17.665 112.85,20.199 115.174,22.456C117.052,24.133 118.185,26.493 118.318,29.007C118.378,32.369 114.745,33.377 112.572,33.986C112.279,34.061 111.925,34.159 111.632,34.257C113.132,34.857 116.574,35.934 119.672,36.897C132.556,40.913 138.009,42.914 138.472,44.652C138.571,45.053 138.444,45.477 138.141,45.758C137.449,46.337 136.141,46.239 133.959,45.871L133.643,45.818C111.259,42.253 95.953,42.509 95.795,42.509C54.728,43.133 33.735,72.909 26.831,82.696C25.018,85.276 24.296,86.296 23.631,86.314C23.439,86.311 23.252,86.247 23.097,86.133C22.758,85.847 22.573,85.418 22.597,84.975C22.447,80.334 32.197,52.888 52.954,37.296C61.591,30.8 76.272,24.223 97.4,29.4C96.192,28.102 95.514,26.397 95.5,24.624C89.295,25.436 78.2,24.549 70.3,23.518C63.508,22.608 52.03,20.758 51.293,18.14C51.135,17.568 51.368,16.952 52.835,16.094C59.435,12.213 68.908,11.371 68.908,11.371C95.618,8.789 99.311,17.943 99.311,17.943Z" style="fill:white;fill-rule:nonzero;"/>
        </g>
        <g transform="matrix(0.48072,0,0,0.48072,-7.125,1.006)">
            <path d="M83.493,6.473C83.493,6.473 75.422,1.719 76.723,0.456C78.024,-0.807 92.804,0.456 102.523,4.63C112.242,8.804 112.857,13.46 112.857,13.46C109.69,8.271 101.348,5.066 83.493,6.473Z" style="fill:white;fill-rule:nonzero;"/>
        </g>
        <g transform="matrix(0.48072,0,0,0.48072,-15.838,-3.953)">
            <path d="M170.583,47.169C169.139,47.214 167.868,47.237 165.95,47.269C165.479,47.263 165.012,47.172 164.573,47L152.223,43.074C151.862,42.961 149.515,42.202 149.723,41.893C149.931,41.584 152.092,41.6 152.468,41.615L153.303,41.615C168.459,42.059 177.372,43.115 179.903,44.751C180.242,44.94 180.405,45.342 180.294,45.714C180.157,46.266 180.015,46.89 170.583,47.169Z" style="fill:white;fill-rule:nonzero;"/>
        </g>
        <g transform="matrix(0.48072,0,0,0.48072,-3.13,-4.11)">
            <path d="M47.525,52.009C47.125,52.086 46.711,52.041 46.337,51.881C45.713,51.625 45.419,51.129 44.837,50.381C43.337,48.546 42.731,46.47 43.22,44.981C43.54,44.062 44.321,43.376 45.273,43.176C48.229,42.424 51.561,43.576 52.794,44.981C53.794,46.081 53.336,46.44 52.042,47.516C51.286,48.148 50.57,48.826 49.898,49.547C48.8,50.663 48.4,51.581 47.525,52.009Z" style="fill:white;fill-rule:nonzero;"/>
        </g>
    </g>
    <g transform="matrix(-0.881424,0,0,0.881424,124.306,12.5813)">
        <g transform="matrix(0.48072,0,0,0.48072,-3.605,-6.351)">
            <path d="M47.627,93.044C47.555,93.062 47.481,93.062 47.409,93.044C47.223,92.99 47.082,92.835 47.048,92.644C46.848,91.373 52.358,79.685 54.893,75.144C56.164,72.888 65.679,66.66 72.093,63.606C72.665,63.335 76.373,61.553 76.486,61.756C76.599,61.959 73.139,64.656 72.958,64.81C67.317,69.338 57.231,81.184 51.966,87.923C48.613,92.217 48,92.969 47.627,93.044Z" style="fill:white;fill-rule:nonzero;"/>
        </g>
        <g transform="matrix(0.48072,0,0,0.48072,-0.693,-0.295)">
            <path d="M99.311,17.943C108.179,17.665 112.85,20.199 115.174,22.456C117.052,24.133 118.185,26.493 118.318,29.007C118.378,32.369 114.745,33.377 112.572,33.986C112.279,34.061 111.925,34.159 111.632,34.257C113.132,34.857 116.574,35.934 119.672,36.897C132.556,40.913 138.009,42.914 138.472,44.652C138.571,45.053 138.444,45.477 138.141,45.758C137.449,46.337 136.141,46.239 133.959,45.871L133.643,45.818C111.259,42.253 95.953,42.509 95.795,42.509C54.728,43.133 33.735,72.909 26.831,82.696C25.018,85.276 24.296,86.296 23.631,86.314C23.439,86.311 23.252,86.247 23.097,86.133C22.758,85.847 22.573,85.418 22.597,84.975C22.447,80.334 32.197,52.888 52.954,37.296C61.591,30.8 76.272,24.223 97.4,29.4C96.192,28.102 95.514,26.397 95.5,24.624C89.295,25.436 78.2,24.549 70.3,23.518C63.508,22.608 52.03,20.758 51.293,18.14C51.135,17.568 51.368,16.952 52.835,16.094C59.435,12.213 68.908,11.371 68.908,11.371C95.618,8.789 99.311,17.943 99.311,17.943Z" style="fill:white;fill-rule:nonzero;"/>
        </g>
        <g transform="matrix(0.48072,0,0,0.48072,-7.125,1.006)">
            <path d="M83.493,6.473C83.493,6.473 75.422,1.719 76.723,0.456C78.024,-0.807 92.804,0.456 102.523,4.63C112.242,8.804 112.857,13.46 112.857,13.46C109.69,8.271 101.348,5.066 83.493,6.473Z" style="fill:white;fill-rule:nonzero;"/>
        </g>
        <g transform="matrix(0.48072,0,0,0.48072,-15.838,-3.953)">
            <path d="M170.583,47.169C169.139,47.214 167.868,47.237 165.95,47.269C165.479,47.263 165.012,47.172 164.573,47L152.223,43.074C151.862,42.961 149.515,42.202 149.723,41.893C149.931,41.584 152.092,41.6 152.468,41.615L153.303,41.615C168.459,42.059 177.372,43.115 179.903,44.751C180.242,44.94 180.405,45.342 180.294,45.714C180.157,46.266 180.015,46.89 170.583,47.169Z" style="fill:white;fill-rule:nonzero;"/>
        </g>
        <g transform="matrix(0.48072,0,0,0.48072,-3.13,-4.11)">
            <path d="M47.525,52.009C47.125,52.086 46.711,52.041 46.337,51.881C45.713,51.625 45.419,51.129 44.837,50.381C43.337,48.546 42.731,46.47 43.22,44.981C43.54,44.062 44.321,43.376 45.273,43.176C48.229,42.424 51.561,43.576 52.794,44.981C53.794,46.081 53.336,46.44 52.042,47.516C51.286,48.148 50.57,48.826 49.898,49.547C48.8,50.663 48.4,51.581 47.525,52.009Z" style="fill:white;fill-rule:nonzero;"/>
        </g>
    </g>
</svg>
