<svg xmlns="http://www.w3.org/2000/svg" width="242.176" height="100.722" viewBox="0 0 242.176 100.722"><g transform="translate(0 0.012)"><g transform="translate(0 -0.012)"><path d="M47.627,93.044a.444.444,0,0,1-.218,0,.511.511,0,0,1-.361-.4h0c-.2-1.271,5.31-12.959,7.845-17.5,1.271-2.256,10.786-8.484,17.2-11.538.572-.271,4.28-2.053,4.393-1.85s-3.347,2.9-3.528,3.054c-5.641,4.528-15.727,16.374-20.992,23.113C48.613,92.217,48,92.969,47.627,93.044ZM47.507,92.548Z" transform="translate(-11.66 -15.293)" fill="#fff"/><path d="M99.311,17.943h0c8.868-.278,13.539,2.256,15.863,4.513a9.447,9.447,0,0,1,3.144,6.551c.06,3.362-3.573,4.37-5.746,4.979-.293.075-.647.173-.94.271,1.5.6,4.942,1.677,8.04,2.64,12.884,4.016,18.337,6.017,18.8,7.755a1.136,1.136,0,0,1-.331,1.106c-.692.579-2,.481-4.182.113l-.316-.053c-22.384-3.565-37.69-3.309-37.848-3.309-41.067.624-62.06,30.4-68.964,40.187-1.813,2.58-2.535,3.6-3.2,3.618a.925.925,0,0,1-.534-.181,1.414,1.414,0,0,1-.5-1.158c-.15-4.641,9.6-32.087,30.357-47.679C61.591,30.8,76.272,24.223,97.4,29.4a7.085,7.085,0,0,1-1.9-4.776c-6.205.812-17.3-.075-25.2-1.106-6.792-.91-18.27-2.76-19.007-5.378-.158-.572.075-1.188,1.542-2.046,6.6-3.881,16.073-4.723,16.073-4.723C95.618,8.789,99.311,17.943,99.311,17.943Z" transform="translate(-5.601 -2.695)" fill="#fff"/><path d="M83.493,6.473S75.422,1.719,76.723.456s16.081,0,25.8,4.174,10.334,8.83,10.334,8.83C109.69,8.271,101.348,5.066,83.493,6.473Z" transform="translate(-18.981 0.012)" fill="#fff"/><path d="M170.583,47.169c-1.444.045-2.715.068-4.633.1A3.9,3.9,0,0,1,164.573,47l-12.35-3.926c-.361-.113-2.708-.872-2.5-1.181s2.369-.293,2.745-.278h.835c15.156.444,24.069,1.5,26.6,3.136h0a.827.827,0,0,1,.391.963C180.157,46.266,180.015,46.89,170.583,47.169Z" transform="translate(-37.107 -10.304)" fill="#fff"/><path d="M47.525,52.009a2.038,2.038,0,0,1-1.188-.128c-.624-.256-.918-.752-1.5-1.5-1.5-1.835-2.106-3.911-1.617-5.4a2.775,2.775,0,0,1,2.053-1.805c2.956-.752,6.288.4,7.521,1.805,1,1.1.542,1.459-.752,2.535a23.708,23.708,0,0,0-2.144,2.031C48.8,50.663,48.4,51.581,47.525,52.009Z" transform="translate(-10.67 -10.632)" fill="#fff"/><ellipse cx="29.123" cy="2.001" rx="29.123" ry="2.001" transform="translate(0 87.913)" fill="#fff"/><path d="M100.992,83.444c-4.1,0-6.732-3.009-6.732-7.1a9.447,9.447,0,0,1,9.658-9.545h7.288a1.459,1.459,0,0,1,1.437,1.707h0a1.459,1.459,0,0,1-1.437,1.2h-7.792a6.213,6.213,0,0,0-6.22,6.423,4.513,4.513,0,0,0,4.513,4.4h7.078a1.452,1.452,0,0,1,1.429,1.7h0a1.452,1.452,0,0,1-1.429,1.211Z" transform="translate(-23.363 -16.547)" fill="#fff"/><path d="M135.328,82.385l-1.346-3.2h-5.506a1.181,1.181,0,0,1-.94-1.9h0a1.188,1.188,0,0,1,.94-.466h4.513l-2.6-6.183-9.4,12.252a1.316,1.316,0,0,1-1.038.519h0a1.316,1.316,0,0,1-1.045-2.151L129.657,67.44a1.978,1.978,0,0,1,1.572-.94,1.3,1.3,0,0,1,1.211.94l5.852,13.727a1.61,1.61,0,0,1-1.5,2.256h0a1.61,1.61,0,0,1-1.459-1.038Z" transform="translate(-29.396 -16.473)" fill="#fff"/><path d="M150.712,81.765l2.129-12.034h-4.588a1.452,1.452,0,0,1-1.429-1.7h0a1.452,1.452,0,0,1,1.429-1.211h12.591a1.452,1.452,0,0,1,1.429,1.707h0a1.452,1.452,0,0,1-1.429,1.2h-5.092l-2.219,12.546a1.437,1.437,0,0,1-1.407,1.188h0a1.437,1.437,0,0,1-1.414-1.7Z" transform="translate(-36.385 -16.552)" fill="#fff"/><path d="M173.782,83.444c-4.1,0-6.732-3.009-6.732-7.1a9.447,9.447,0,0,1,9.642-9.545h7.3a1.459,1.459,0,0,1,1.429,1.707h0a1.459,1.459,0,0,1-1.429,1.2h-7.8a6.213,6.213,0,0,0-6.22,6.423,4.513,4.513,0,0,0,4.513,4.4h7.07a1.452,1.452,0,0,1,1.429,1.7h0a1.452,1.452,0,0,1-1.429,1.211Z" transform="translate(-41.404 -16.547)" fill="#fff"/><path d="M191.453,81.828,193.9,67.988a1.437,1.437,0,0,1,1.414-1.188h0a1.429,1.429,0,0,1,1.406,1.655l-2.444,13.839a1.437,1.437,0,0,1-1.414,1.2h0a1.429,1.429,0,0,1-1.406-1.67Zm13.388,0,.985-5.551H198.99a1.286,1.286,0,0,1-1.271-1.5h0a1.294,1.294,0,0,1,1.271-1.053h7.3l1-5.7A1.437,1.437,0,0,1,208.7,66.83h0a1.429,1.429,0,0,1,1.406,1.625l-2.452,13.87a1.437,1.437,0,0,1-1.406,1.173h0a1.437,1.437,0,0,1-1.407-1.67Z" transform="translate(-47.447 -16.547)" fill="#fff"/><path d="M231.71,81.765l2.129-12.034H229.25a1.459,1.459,0,0,1-1.437-1.7h0a1.459,1.459,0,0,1,1.437-1.211h12.591a1.459,1.459,0,0,1,1.429,1.707h0a1.459,1.459,0,0,1-1.429,1.2h-5.1L234.53,82.277a1.437,1.437,0,0,1-1.414,1.188h0a1.429,1.429,0,0,1-1.406-1.7Z" transform="translate(-56.46 -16.552)" fill="#fff"/><path d="M247.794,81.828l2.452-13.839a1.437,1.437,0,0,1,1.407-1.188h0a1.429,1.429,0,0,1,1.407,1.655l-2.444,13.839a1.437,1.437,0,0,1-1.407,1.2h0a1.437,1.437,0,0,1-1.414-1.67Zm13.388,0,.985-5.551h-6.829a1.294,1.294,0,0,1-1.279-1.5h0a1.3,1.3,0,0,1,1.279-1.068h7.288l1.008-5.7a1.437,1.437,0,0,1,1.406-1.188h0a1.429,1.429,0,0,1,1.407,1.64L264,82.294a1.437,1.437,0,0,1-1.406,1.2h0a1.437,1.437,0,0,1-1.414-1.67Z" transform="translate(-61.412 -16.547)" fill="#fff"/><path d="M289.951,82.385l-1.354-3.2h-5.5a1.181,1.181,0,0,1-.94-1.9h0a1.188,1.188,0,0,1,.94-.466h4.513l-2.6-6.183-9.4,12.252a1.316,1.316,0,0,1-1.038.519h0a1.316,1.316,0,0,1-1.038-2.114L284.272,67.44a2,2,0,0,1,1.579-.94,1.3,1.3,0,0,1,1.241.94l5.822,13.727a1.61,1.61,0,0,1-1.5,2.256h0a1.61,1.61,0,0,1-1.459-1.038Z" transform="translate(-67.729 -16.473)" fill="#fff"/><path d="M305.292,81.765l2.129-12.034h-4.588a1.452,1.452,0,0,1-1.429-1.7h0a1.452,1.452,0,0,1,1.429-1.211h12.591a1.452,1.452,0,0,1,1.429,1.707h0a1.452,1.452,0,0,1-1.429,1.2h-5.092l-2.219,12.546a1.437,1.437,0,0,1-1.406,1.188h0a1.437,1.437,0,0,1-1.414-1.7Z" transform="translate(-74.699 -16.552)" fill="#fff"/><path d="M110.19,123.4l-4.979-6.769H97.17A2.2,2.2,0,0,1,95,114.076h0a2.2,2.2,0,0,1,2.166-1.828h10c4.3,0,6.611-2.7,6.611-6.882,0-2.858-1.685-4.3-4.611-4.3H93.673L89.912,122.53a2.422,2.422,0,0,1-2.392,2h0a2.437,2.437,0,0,1-2.392-2.851l3.889-22.06a4.257,4.257,0,0,1,4.2-3.52h16.841c5.634,0,8.725,3.242,8.725,8.364,0,5.6-3.009,9.74-7.747,11.425l3.46,4.242a2.7,2.7,0,0,1-2.091,4.4h0a2.708,2.708,0,0,1-2.211-1.128Z" transform="translate(-21.091 -23.81)" fill="#fff"/><path d="M157.411,122.677l-2.3-5.476h-9.4a2.008,2.008,0,0,1-1.6-3.227h0a1.993,1.993,0,0,1,1.6-.8h7.725l-4.46-10.643L132.9,123.49a2.256,2.256,0,0,1-1.768.872h0a2.256,2.256,0,0,1-1.768-3.6l18.352-23.617a3.415,3.415,0,0,1,2.7-1.6,2.2,2.2,0,0,1,2.114,1.6l9.951,23.392a2.745,2.745,0,0,1-2.527,3.828h0a2.76,2.76,0,0,1-2.542-1.685Z" transform="translate(-31.953 -23.671)" fill="#fff"/><path d="M177.418,119.489l3.505-19.909a4.265,4.265,0,0,1,4.2-3.52h17.224c4.972,0,8.1,2.106,8.1,6.138a7.063,7.063,0,0,1-5.167,7.273,5.232,5.232,0,0,1,3.445,5.265c0,5.6-4.513,9.778-10.793,9.778H181.6a4.265,4.265,0,0,1-4.182-5.024Zm10.312-9.778h0a2.1,2.1,0,0,1,2.061-1.73h10.53c3.4,0,4.814-1.324,4.814-4.107,0-2.422-2.2-2.813-5.521-2.813h-13.96l-3.3,18.5h14.4c3.949,0,6.882-1.136,6.882-4.423,0-1.918-1.294-3.009-3.716-3.009H189.79a2.1,2.1,0,0,1-2.061-2.46Z" transform="translate(-43.957 -23.8)" fill="#fff"/><path d="M223.758,119.489l3.505-19.909a4.257,4.257,0,0,1,4.182-3.52h17.232c4.964,0,8.093,2.106,8.093,6.138a7.065,7.065,0,0,1-5.16,7.273,5.236,5.236,0,0,1,3.437,5.265c0,5.6-4.513,9.778-10.793,9.778h-16.3a4.265,4.265,0,0,1-4.2-5.024Zm10.312-9.778h0a2.091,2.091,0,0,1,2.053-1.73h10.53c3.407,0,4.814-1.324,4.814-4.107,0-2.422-2.189-2.813-5.513-2.813H231.986L228.7,119.6h14.4c3.949,0,6.882-1.136,6.882-4.423,0-1.918-1.286-3.009-3.716-3.009H236.123a2.091,2.091,0,0,1-2.053-2.5Z" transform="translate(-55.442 -23.8)" fill="#fff"/><path d="M269.929,121.994l4.2-23.918a2.452,2.452,0,0,1,2.414-2.016h0a2.444,2.444,0,0,1,2.407,2.866l-4.189,23.805a2.136,2.136,0,0,1-2.1,1.76h-.639a2.129,2.129,0,0,1-2.1-2.5Z" transform="translate(-66.895 -23.8)" fill="#fff"/><path d="M293.457,121.578l3.64-20.594h-7.845a2.482,2.482,0,0,1-2.444-2.911h0a2.475,2.475,0,0,1,2.444-2.053h21.519a2.475,2.475,0,0,1,2.444,2.9h0a2.482,2.482,0,0,1-2.444,2.061h-8.71L298.3,122.435a2.452,2.452,0,0,1-2.407,2.016h0a2.444,2.444,0,0,1-2.437-2.873Z" transform="translate(-71.077 -23.79)" fill="#fff"/></g></g></svg>