<svg xmlns="http://www.w3.org/2000/svg" width="17.153" height="15.388" viewBox="0 0 17.153 15.388">
    <g id="Group_745" transform="translate(-1462.999 -330.389)">
        <g id="Subtraction_1" transform="translate(13408.849 333.662)" fill="#fff">
            <path d="M -11935.359375 11.61497211456299 L -11941.84765625 11.61497211456299 C -11943.7783203125 11.61497211456299 -11945.349609375 10.0451717376709 -11945.349609375 8.115621566772461 L -11945.349609375 2.389411687850952 C -11945.349609375 0.6949597001075745 -11944.150390625 -0.7231101989746094 -11942.5361328125 -1.042491793632507 L -11942.5361328125 5.066641807556152 C -11942.5361328125 7.547591686248779 -11940.5166015625 9.565991401672363 -11938.0341796875 9.565991401672363 L -11932.171875 9.565991401672363 C -11932.73046875 10.79859066009521 -11933.962890625 11.61497211456299 -11935.359375 11.61497211456299 Z" stroke="none"/>
            <path d="M -11935.359375 11.11497211456299 C -11934.455078125 11.11497211456299 -11933.6318359375 10.71607971191406 -11933.076171875 10.06599140167236 L -11938.0341796875 10.06599140167236 C -11940.7919921875 10.06599140167236 -11943.0361328125 7.823291778564453 -11943.0361328125 5.066641807556152 L -11943.0361328125 -0.3669852018356323 C -11944.107421875 0.09274796396493912 -11944.849609375 1.155589461326599 -11944.849609375 2.389411687850952 L -11944.849609375 8.115621566772461 C -11944.849609375 9.769472122192383 -11943.5029296875 11.11497211456299 -11941.84765625 11.11497211456299 L -11935.359375 11.11497211456299 M -11935.359375 12.11497211456299 L -11941.84765625 12.11497211456299 C -11944.0546875 12.11497211456299 -11945.849609375 10.32087135314941 -11945.849609375 8.115621566772461 L -11945.849609375 2.389411687850952 C -11945.849609375 0.2487617433071136 -11944.1748046875 -1.505958199501038 -11942.0361328125 -1.605368256568909 L -11942.0361328125 5.066641807556152 C -11942.0361328125 7.271891593933105 -11940.2412109375 9.065991401672363 -11938.0341796875 9.065991401672363 L -11931.4736328125 9.065991401672363 C -11931.9111328125 10.86169147491455 -11933.509765625 12.11497211456299 -11935.359375 12.11497211456299 Z" stroke="none" fill="#181a1f"/>
        </g>
        <g id="Rectangle_108" transform="translate(1466.152 330.389)" fill="#fff" stroke="#181a1f" stroke-width="1">
            <rect width="14" height="13" rx="4" stroke="none"/>
            <rect x="0.5" y="0.5" width="13" height="12" rx="3.5" fill="none"/>
        </g>
    </g>
</svg>
