<svg xmlns="http://www.w3.org/2000/svg" width="120.51" height="62.94" viewBox="0 0 120.51 62.94">
  <g>
    <path d="M60.25,54.86C26.94,54.86,3,53.19.6,51.58,3,50,26.94,48.3,60.25,48.3s57.29,1.7,59.65,3.28C117.54,53.19,93.57,54.86,60.25,54.86Z" fill="#fff"/>
    <path d="M60.25,48.8c32,0,52.63,1.49,58.1,2.78-5.47,1.29-26.1,2.78-58.1,2.78S7.62,52.87,2.16,51.58c5.46-1.29,26.09-2.78,58.09-2.78m0-1C27,47.8,0,49.49,0,51.58s27,3.78,60.25,3.78,60.26-1.69,60.26-3.78-27-3.78-60.26-3.78Z" fill="#fff"/>
    <path d="M79.51,50.88c6.76-1.56,27,2.83,10,3.06-3.38.05-17,8-22.94,8-3.25,0-3.52-5.64-10.06-7.46-5.94-1.66-17.62-1.95-17.62-1.95,7-15.57,19.67-25.32,29.9-22.43A8.4,8.4,0,0,1,66,24.66c-7.25,1.64-20.48,1.83-29.89,1.47-8.1-.3-21.85-1.25-23-4.23-.25-.66,0-1.41,1.6-2.59C22.06,14,33.17,12,33.17,12,64.42,6,69.8,16.38,69.8,16.38h0C80.25,15.07,86,17.58,89,19.93a11.29,11.29,0,0,1,4.44,7.4c.44,4-3.6,6.12-6.25,6.51-3.55.52-14.39,1.94-15.31,6.72C69.73,51.94,79.51,50.88,79.51,50.88Z" fill="#fff" stroke="#181a1f" stroke-miterlimit="10" stroke-width="2"/>
    <path d="M67.68,15.05c-3.08-4.13-9.26-6.22-18.37-6.22a96,96,0,0,0-16.12,1.59l-.31.05-.28-.13C30,9.09,23.74,6,23.27,3.79a1.55,1.55,0,0,1,.33-1.36c.81-1,3.86-1.43,9-1.43,6.28,0,15.61.84,23,3.21C68,8.19,69.4,14,69.46,14.23l1,4.6Z" fill="#fff"/>
    <path d="M32.65,2c6.5,0,15.57.88,22.65,3.16,12,3.85,13.18,9.29,13.18,9.29-3-4-8.85-6.62-19.17-6.62A97.119,97.119,0,0,0,33,9.43S23,4.71,24.36,3.08C24.93,2.42,28.18,2,32.65,2m0-2c-8.29,0-9.35,1.25-9.81,1.78A2.57,2.57,0,0,0,22.29,4c.15.72.62,2.9,9.89,7.24l.57.27.62-.11A95.938,95.938,0,0,1,49.31,9.83c8.77,0,14.68,1.95,17.57,5.82l5.64,7.55L70.43,14c-.15-.67-1.85-6.67-14.51-10.75C48.46.86,39,0,32.65,0Z" fill="#181a1f"/>
  </g>
</svg>
